<?xml version="1.0" encoding="UTF-8" standalone="no"?>
<svg
   xmlns:dc="http://purl.org/dc/elements/1.1/"
   xmlns:cc="http://creativecommons.org/ns#"
   xmlns:rdf="http://www.w3.org/1999/02/22-rdf-syntax-ns#"
   xmlns:svg="http://www.w3.org/2000/svg"
   xmlns="http://www.w3.org/2000/svg"
   xmlns:sodipodi="http://sodipodi.sourceforge.net/DTD/sodipodi-0.dtd"
   xmlns:inkscape="http://www.inkscape.org/namespaces/inkscape"
   id="Layer_1"
   data-name="Layer 1"
   viewBox="0 0 256 256"
   version="1.1"
   sodipodi:docname="icon.svg"
   inkscape:version="0.92.4 (f8dce91, 2019-08-02)">
  <metadata
     id="metadata18">
    <rdf:RDF>
      <cc:Work
         rdf:about="">
        <dc:format>image/svg+xml</dc:format>
        <dc:type
           rdf:resource="http://purl.org/dc/dcmitype/StillImage" />
        <dc:title>elementor-gradient-256px</dc:title>
      </cc:Work>
    </rdf:RDF>
  </metadata>
  <sodipodi:namedview
     pagecolor="#ffffff"
     bordercolor="#666666"
     borderopacity="1"
     objecttolerance="10"
     gridtolerance="10"
     guidetolerance="10"
     inkscape:pageopacity="0"
     inkscape:pageshadow="2"
     inkscape:window-width="1221"
     inkscape:window-height="969"
     id="namedview16"
     showgrid="false"
     inkscape:zoom="0.921875"
     inkscape:cx="-27.118644"
     inkscape:cy="128"
     inkscape:window-x="59"
     inkscape:window-y="27"
     inkscape:window-maximized="1"
     inkscape:current-layer="Layer_1" />
  <defs
     id="defs9">
    <style
       id="style2">.cls-1{fill:url(#linear-gradient);}</style>
    <linearGradient
       id="linear-gradient"
       x1="3.74"
       y1="252.26"
       x2="252.26"
       y2="3.74"
       gradientUnits="userSpaceOnUse">
      <stop
         offset="0"
         stop-color="#2e2975"
         id="stop4" />
      <stop
         offset="1"
         stop-color="#f2295b"
         id="stop6" />
    </linearGradient>
  </defs>
  <title
     id="title11">elementor-gradient-256px</title>
  <path
     class="cls-1"
     d="M 243.24,0 H 12.76 C 5.7128466,0 0,5.7128466 0,12.76 V 243.24 C 0,250.28715 5.7128466,256 12.76,256 h 230.48 c 7.04715,0 12.76,-5.71285 12.76,-12.76 V 12.76 C 256,5.7128466 250.28715,0 243.24,0 Z"
     id="path13"
     inkscape:connector-curvature="0"
     style="fill:url(#linear-gradient)"
     sodipodi:nodetypes="sssssssss" />
  <path
     inkscape:connector-curvature="0"
     style="fill:#ffffff;stroke-width:0.37088558"
     d="m 195.98055,69.381531 -31.1173,-31.1173 c -3.33797,-3.33797 -7.86278,-5.22949 -12.57302,-5.22949 H 76.59248 c -9.828468,0.0371 -17.802508,8.01113 -17.802508,17.8396 V 205.16276 c 0,9.82846 7.97404,17.8025 17.802508,17.8025 h 106.81505 c 9.82846,0 17.8025,-7.97404 17.8025,-17.8025 V 81.991641 c 0,-4.71025 -1.89151,-9.27214 -5.22948,-12.61011 z m -14.01948,11.16366 h -28.22439 v -28.2244 z M 76.59248,205.16276 V 50.874341 h 59.34169 v 38.5721 c 0,4.932781 3.96848,8.901251 8.90126,8.901251 h 38.5721 V 205.16276 Z m 92.79557,-53.29627 c -4.5248,-4.45062 -17.43162,-3.2267 -23.88503,-2.41075 -6.37923,-3.8943 -10.64442,-9.27215 -13.6486,-17.17201 1.44646,-5.97126 3.74595,-15.05795 2.00279,-20.76959 -1.55772,-9.7172 -14.01947,-8.7529 -15.79973,-2.18822 -1.63189,5.97126 -0.14835,14.27909 2.5962,24.88642 -3.70885,8.86417 -9.23505,20.76959 -13.12935,27.59389 -7.41771,3.82012 -17.431619,9.7172 -18.915161,17.13491 -1.223922,5.85999 9.643021,20.47289 28.224401,-11.57163 8.30783,-2.74455 17.35744,-6.11961 25.36857,-7.4548 7.00974,3.78303 15.20631,6.30506 20.69541,6.30506 9.45758,0 10.3848,-10.45897 6.4905,-14.35328 z m -73.472434,28.8549 c 1.891515,-5.08113 9.086694,-10.94112 11.274914,-12.98099 -7.04682,11.23783 -11.274914,13.24061 -11.274914,12.98099 z M 126.17988,110.0306 c 2.74455,0 2.48493,11.90542 0.66759,15.13213 -1.6319,-5.15531 -1.59481,-15.13213 -0.66759,-15.13213 z m -9.04961,50.66297 c 3.59759,-6.26797 6.67594,-13.72277 9.16087,-20.28744 3.07835,5.60037 7.00974,10.08809 11.16366,13.16644 -7.71442,1.5948 -14.42745,4.8586 -20.32453,7.121 z m 48.80854,-1.85443 c 0,0 -1.85443,2.22531 -13.83403,-2.89291 13.01808,-0.9643 15.16923,2.00279 13.83403,2.89291 z"
     id="path3772" />
</svg>
